<svg width="72.000000" height="50.000000" viewBox="0 0 72 50" fill="none" xmlns="http://www.w3.org/2000/svg" xmlns:xlink="http://www.w3.org/1999/xlink">
	<desc>
			Created with Pixso.
	</desc>
	<defs/>
	<path id="Combined Shape" d="M16.4335 4.22852L13.1274 4.22852L13.1274 0L48.4615 0L48.4615 35.3965C46.2975 37.2617 44.8997 39.9961 44.8101 43.0547L27.05 43.0547C26.8847 37.4082 22.2631 32.8652 16.6017 32.8652C10.9403 32.8652 6.31866 37.4082 6.15332 43.0547L0 43.0547L0 29.1191L11.7695 29.1191C13.2731 29.1191 14.4964 27.8906 14.4964 26.3809C14.4964 24.8711 13.2731 23.6426 11.7695 23.6426L8.3446 23.6426L8.3446 19.4141L26.2659 19.4141C27.7695 19.4141 28.9928 18.1855 28.9928 16.6738C28.9928 15.1641 27.7695 13.9355 26.2659 13.9355L0 13.9355L0 9.70703L16.6017 9.70703C18.1052 9.70703 19.3284 8.47852 19.3284 6.96875C19.3284 5.50977 17.9756 4.22852 16.4335 4.22852ZM4.84613 0L9 0L9 4.16602L4.84613 4.16602L4.84613 0ZM61.0623 4.86133L70.6154 19.4453L52.6154 19.4453L52.6154 4.86133L61.0623 4.86133ZM0 19.4453L4.15387 19.4453L4.15387 23.6113L0 23.6113L0 19.4453ZM52.6154 33.1758L52.6154 23.6113L72 23.6113L72 43.0547L65.7837 43.0547C65.6166 37.4004 60.9476 32.8496 55.2283 32.8496C54.3267 32.8496 53.4514 32.9629 52.6154 33.1758ZM10.3846 43.75C10.3846 40.3047 13.1798 37.5 16.6154 37.5C20.051 37.5 22.8462 40.3047 22.8462 43.75C22.8462 47.1953 20.051 50 16.6154 50C13.1798 50 10.3846 47.1953 10.3846 43.75ZM49.1538 43.75C49.1538 40.3047 51.949 37.5 55.3846 37.5C58.8202 37.5 61.6154 40.3047 61.6154 43.75C61.6154 47.1953 58.8202 50 55.3846 50C51.949 50 49.1538 47.1953 49.1538 43.75ZM14.5151 45.8574L18.7157 45.8574L18.7157 41.6426L14.5151 41.6426L14.5151 45.8574ZM53.2843 45.8574L57.4849 45.8574L57.4849 41.6426L53.2843 41.6426L53.2843 45.8574Z" clip-rule="evenodd" fill="#FDD6BA" fill-opacity="1.000000" fill-rule="evenodd"/>
</svg>
