<svg width="72.000000" height="72.000000" viewBox="0 0 72 72" fill="none" xmlns="http://www.w3.org/2000/svg" xmlns:xlink="http://www.w3.org/1999/xlink">
	<desc>
			Created with Pixso.
	</desc>
	<defs/>
	<path id="Shape" d="M71.3057 39.2266C70.3383 29.7441 65.8077 20.4648 58.5481 13.1035C43.4297 -2.21875 21.0118 -4.42773 8.57806 8.19336C-3.8645 20.8125 -1.69019 43.5371 13.4238 58.8652C20.6834 66.2266 29.8334 70.8203 39.1831 71.8027C40.43 71.9316 41.6592 72 42.8706 72C50.9113 72 58.0999 69.1426 63.3937 63.7734C69.4819 57.6035 72.2952 48.8828 71.3057 39.2266ZM33.0284 40.0371C38.8591 41.6562 44.2285 43.1719 49.1807 47.0078C54.8517 51.3984 58.1398 57.5273 62.6216 62.9902C60.9886 48.6582 53.8843 36.3457 39.5248 32.1211C32.984 30.1992 27.0289 28.5566 21.6197 24.0488C16.5433 19.8125 13.4903 14.0352 9.35461 8.97656C11.0586 23.5352 18.3493 35.9551 33.0284 40.0371Z" clip-rule="evenodd" fill="#FDD6BA" fill-opacity="1.000000" fill-rule="evenodd"/>
</svg>
