<svg width="72.000000" height="72.000000" viewBox="0 0 72 72" fill="none" xmlns="http://www.w3.org/2000/svg" xmlns:xlink="http://www.w3.org/1999/xlink">
	<desc>
			Created with Pixso.
	</desc>
	<defs/>
	<path id="Combined Shape" d="M34 23.9805C34.5576 23.9922 35.1237 24 35.6984 24C35.7999 24 35.9006 23.9941 36.0001 23.9805C36.0994 23.9941 36.2001 24 36.3016 24C36.8763 24 37.4424 23.9922 38 23.9805L38 39L66.7111 39C69.6124 39 72 36.6309 72 33.75L72 26.25C72 23.3691 69.6124 21 66.7111 21L54.5796 21C63.0488 17.709 67 12.3262 67 8.06641C67 4.3457 64.0499 0.00390625 55.7306 0C44.9929 0 38.9117 7.61523 35.9996 14.5898C33.0874 7.61523 27.007 0 16.2725 0C7.95319 0 5 4.34375 5 8.06445C5 12.3262 8.95154 17.707 17.4214 21L5.28888 21C2.38757 21 0 23.3691 0 26.25L0 33.75C0 36.6309 2.38757 39 5.28888 39L34 39L34 23.9805ZM16.2725 4.45117C13.0491 4.45117 9.60474 5.40039 9.60474 8.06445C9.60474 11.8555 16.4597 18.7598 32.822 19.4863C31.4406 14.5547 27.2656 4.45117 16.2725 4.45117ZM39.1749 19.4844C40.5594 14.5566 44.7344 4.45312 55.7306 4.45312C58.9539 4.45312 62.3953 5.40039 62.3953 8.06445C62.3953 9.85352 60.8388 12.6562 56.4705 15.1641C53.3208 16.9707 47.8503 19.0918 39.1749 19.4844ZM34 44L6 44L6 66.8418C6 69.6719 8.39136 72 11.2973 72L34 72L34 44ZM66 66.8418L66 44L38 44L38 72L60.7027 72C63.6086 72 66 69.6719 66 66.8418Z" clip-rule="evenodd" fill="#FDD6BA" fill-opacity="1.000000" fill-rule="evenodd"/>
</svg>
